<?xml version="1.0" encoding="UTF-8" standalone="no"?>
<svg
   width="210mm"
   height="297mm"
   viewBox="0 0 209.99999 296.99999"
   version="1.1"
   id="svg10"
   xmlns="http://www.w3.org/2000/svg"
   xmlns:svg="http://www.w3.org/2000/svg">
  <defs
     id="defs10" />
  <g
     id="Pad"
     transform="matrix(1,0,0,-1,90.93589,149.57804)">
    <path
       id="Pad_f0000"
       d="m 40,-72.5 h -80 v 0 z"
       stroke="#191919"
       stroke-width="0.7 px"
       style="fill:#727980;fill-opacity:0.3;fill-rule:evenodd;stroke-width:0.7;stroke-linecap:square;stroke-miterlimit:4;stroke-dasharray:none" />
    <path
       id="Pad_f0001"
       d="m 45,-67.5 a 5,5 0 0 0 -5,-5 v 0 a 5,5 0 0 1 5,5 z"
       stroke="#191919"
       stroke-width="0.7 px"
       style="fill:#727980;fill-opacity:0.3;fill-rule:evenodd;stroke-width:0.7;stroke-linecap:square;stroke-miterlimit:4;stroke-dasharray:none" />
    <path
       id="Pad_f0002"
       d="m 45,67.5 v -135 0 z"
       stroke="#191919"
       stroke-width="0.7 px"
       style="fill:#727980;fill-opacity:0.3;fill-rule:evenodd;stroke-width:0.7;stroke-linecap:square;stroke-miterlimit:4;stroke-dasharray:none" />
    <path
       id="Pad_f0003"
       d="m 40,72.5 a 5,5 0 0 0 5,-5 v 0 a 5,5 0 0 1 -5,5 z"
       stroke="#191919"
       stroke-width="0.7 px"
       style="fill:#727980;fill-opacity:0.3;fill-rule:evenodd;stroke-width:0.7;stroke-linecap:square;stroke-miterlimit:4;stroke-dasharray:none" />
    <path
       id="Pad_f0004"
       d="m -40,72.5 h 80 v 0 z"
       stroke="#191919"
       stroke-width="0.7 px"
       style="fill:#727980;fill-opacity:0.3;fill-rule:evenodd;stroke-width:0.7;stroke-linecap:square;stroke-miterlimit:4;stroke-dasharray:none" />
    <path
       id="Pad_f0005"
       d="m -45,67.5 a 5,5 0 0 0 5,5 v 0 a 5,5 0 0 1 -5,-5 z"
       stroke="#191919"
       stroke-width="0.7 px"
       style="fill:#727980;fill-opacity:0.3;fill-rule:evenodd;stroke-width:0.7;stroke-linecap:square;stroke-miterlimit:4;stroke-dasharray:none" />
    <path
       id="Pad_f0006"
       d="m -45,-67.5 v 135 0 z"
       stroke="#191919"
       stroke-width="0.7 px"
       style="fill:#727980;fill-opacity:0.3;fill-rule:evenodd;stroke-width:0.7;stroke-linecap:square;stroke-miterlimit:4;stroke-dasharray:none" />
    <path
       id="Pad_f0007"
       d="m -40,-72.5 a 5,5 0 0 0 -5,5 v 0 a 5,5 0 0 1 5,-5 z"
       stroke="#191919"
       stroke-width="0.7 px"
       style="fill:#727980;fill-opacity:0.3;fill-rule:evenodd;stroke-width:0.7;stroke-linecap:square;stroke-miterlimit:4;stroke-dasharray:none" />
    <path
       id="Pad_f0008"
       d="m -25,66 v 0 -3 0 z"
       stroke="#191919"
       stroke-width="0.7 px"
       style="fill:#727980;fill-opacity:0.3;fill-rule:evenodd;stroke-width:0.7;stroke-linecap:square;stroke-miterlimit:4;stroke-dasharray:none" />
    <path
       id="Pad_f0009"
       d="m -25,63 v 0 a 1.5,1.5 0 0 1 1.5,-1.5 v 0 A 1.5,1.5 0 0 0 -25,63 Z"
       stroke="#191919"
       stroke-width="0.7 px"
       style="fill:#727980;fill-opacity:0.3;fill-rule:evenodd;stroke-width:0.7;stroke-linecap:square;stroke-miterlimit:4;stroke-dasharray:none" />
    <path
       id="Pad_f0010"
       d="m -23.5,61.5 v 0 h 12 v 0 z"
       stroke="#191919"
       stroke-width="0.7 px"
       style="fill:#727980;fill-opacity:0.3;fill-rule:evenodd;stroke-width:0.7;stroke-linecap:square;stroke-miterlimit:4;stroke-dasharray:none" />
    <path
       id="Pad_f0011"
       d="m -11.5,61.5 v 0 A 1.5,1.5 0 0 1 -10,63 v 0 a 1.5,1.5 0 0 0 -1.5,-1.5 z"
       stroke="#191919"
       stroke-width="0.7 px"
       style="fill:#727980;fill-opacity:0.3;fill-rule:evenodd;stroke-width:0.7;stroke-linecap:square;stroke-miterlimit:4;stroke-dasharray:none" />
    <path
       id="Pad_f0012"
       d="m -10,63 v 0 3 0 z"
       stroke="#191919"
       stroke-width="0.7 px"
       style="fill:#727980;fill-opacity:0.3;fill-rule:evenodd;stroke-width:0.7;stroke-linecap:square;stroke-miterlimit:4;stroke-dasharray:none" />
    <path
       id="Pad_f0013"
       d="m -10,66 v 0 a 1.5,1.5 0 0 1 -1.5,1.5 v 0 A 1.5,1.5 0 0 0 -10,66 Z"
       stroke="#191919"
       stroke-width="0.7 px"
       style="fill:#727980;fill-opacity:0.3;fill-rule:evenodd;stroke-width:0.7;stroke-linecap:square;stroke-miterlimit:4;stroke-dasharray:none" />
    <path
       id="Pad_f0014"
       d="m -11.5,67.5 v 0 h -12 v 0 z"
       stroke="#191919"
       stroke-width="0.7 px"
       style="fill:#727980;fill-opacity:0.3;fill-rule:evenodd;stroke-width:0.7;stroke-linecap:square;stroke-miterlimit:4;stroke-dasharray:none" />
    <path
       id="Pad_f0015"
       d="m -23.5,67.5 v 0 A 1.5,1.5 0 0 1 -25,66 v 0 a 1.5,1.5 0 0 0 1.5,1.5 z"
       stroke="#191919"
       stroke-width="0.7 px"
       style="fill:#727980;fill-opacity:0.3;fill-rule:evenodd;stroke-width:0.7;stroke-linecap:square;stroke-miterlimit:4;stroke-dasharray:none" />
    <path
       id="Pad_f0016"
       d="m 23.5,67.5 h -12 v 0 z"
       stroke="#191919"
       stroke-width="0.7 px"
       style="fill:#727980;fill-opacity:0.3;fill-rule:evenodd;stroke-width:0.7;stroke-linecap:square;stroke-miterlimit:4;stroke-dasharray:none" />
    <path
       id="Pad_f0017"
       d="m 25,66 v 0 a 1.5,1.5 0 0 1 -1.5,1.5 v 0 A 1.5,1.5 0 0 0 25,66 Z"
       stroke="#191919"
       stroke-width="0.7 px"
       style="fill:#727980;fill-opacity:0.3;fill-rule:evenodd;stroke-width:0.7;stroke-linecap:square;stroke-miterlimit:4;stroke-dasharray:none" />
    <path
       id="Pad_f0018"
       d="m 25,63 v 3 0 z"
       stroke="#191919"
       stroke-width="0.7 px"
       style="fill:#727980;fill-opacity:0.3;fill-rule:evenodd;stroke-width:0.7;stroke-linecap:square;stroke-miterlimit:4;stroke-dasharray:none" />
    <path
       id="Pad_f0019"
       d="m 23.5,61.5 v 0 A 1.5,1.5 0 0 1 25,63 v 0 a 1.5,1.5 0 0 0 -1.5,-1.5 z"
       stroke="#191919"
       stroke-width="0.7 px"
       style="fill:#727980;fill-opacity:0.3;fill-rule:evenodd;stroke-width:0.7;stroke-linecap:square;stroke-miterlimit:4;stroke-dasharray:none" />
    <path
       id="Pad_f0020"
       d="m 11.5,61.5 h 12 v 0 z"
       stroke="#191919"
       stroke-width="0.7 px"
       style="fill:#727980;fill-opacity:0.3;fill-rule:evenodd;stroke-width:0.7;stroke-linecap:square;stroke-miterlimit:4;stroke-dasharray:none" />
    <path
       id="Pad_f0021"
       d="m 10,63 v 0 a 1.5,1.5 0 0 1 1.5,-1.5 v 0 A 1.5,1.5 0 0 0 10,63 Z"
       stroke="#191919"
       stroke-width="0.7 px"
       style="fill:#727980;fill-opacity:0.3;fill-rule:evenodd;stroke-width:0.7;stroke-linecap:square;stroke-miterlimit:4;stroke-dasharray:none" />
    <path
       id="Pad_f0022"
       d="m 10,66 v -3 0 z"
       stroke="#191919"
       stroke-width="0.7 px"
       style="fill:#727980;fill-opacity:0.3;fill-rule:evenodd;stroke-width:0.7;stroke-linecap:square;stroke-miterlimit:4;stroke-dasharray:none" />
    <path
       id="Pad_f0023"
       d="m 11.5,67.5 v 0 A 1.5,1.5 0 0 1 10,66 v 0 a 1.5,1.5 0 0 0 1.5,1.5 z"
       stroke="#191919"
       stroke-width="0.7 px"
       style="fill:#727980;fill-opacity:0.3;fill-rule:evenodd;stroke-width:0.7;stroke-linecap:square;stroke-miterlimit:4;stroke-dasharray:none" />
    <path
       id="Pad_f0024"
       d="m -39,-49 v 0 -12 0 z"
       stroke="#191919"
       stroke-width="0.7 px"
       style="fill:#727980;fill-opacity:0.3;fill-rule:evenodd;stroke-width:0.7;stroke-linecap:square;stroke-miterlimit:4;stroke-dasharray:none" />
    <path
       id="Pad_f0025"
       d="m -39,-61 v 0 a 1.5,1.5 0 0 1 1.5,-1.5 v 0 A 1.5,1.5 0 0 0 -39,-61 Z"
       stroke="#191919"
       stroke-width="0.7 px"
       style="fill:#727980;fill-opacity:0.3;fill-rule:evenodd;stroke-width:0.7;stroke-linecap:square;stroke-miterlimit:4;stroke-dasharray:none" />
    <path
       id="Pad_f0026"
       d="m -37.5,-62.5 v 0 h 3 v 0 z"
       stroke="#191919"
       stroke-width="0.7 px"
       style="fill:#727980;fill-opacity:0.3;fill-rule:evenodd;stroke-width:0.7;stroke-linecap:square;stroke-miterlimit:4;stroke-dasharray:none" />
    <path
       id="Pad_f0027"
       d="m -34.5,-62.5 v 0 a 1.5,1.5 0 0 1 1.5,1.5 v 0 a 1.5,1.5 0 0 0 -1.5,-1.5 z"
       stroke="#191919"
       stroke-width="0.7 px"
       style="fill:#727980;fill-opacity:0.3;fill-rule:evenodd;stroke-width:0.7;stroke-linecap:square;stroke-miterlimit:4;stroke-dasharray:none" />
    <path
       id="Pad_f0028"
       d="m -33,-61 v 0 12 0 z"
       stroke="#191919"
       stroke-width="0.7 px"
       style="fill:#727980;fill-opacity:0.3;fill-rule:evenodd;stroke-width:0.7;stroke-linecap:square;stroke-miterlimit:4;stroke-dasharray:none" />
    <path
       id="Pad_f0029"
       d="m -33,-49 v 0 a 1.5,1.5 0 0 1 -1.5,1.5 v 0 A 1.5,1.5 0 0 0 -33,-49 Z"
       stroke="#191919"
       stroke-width="0.7 px"
       style="fill:#727980;fill-opacity:0.3;fill-rule:evenodd;stroke-width:0.7;stroke-linecap:square;stroke-miterlimit:4;stroke-dasharray:none" />
    <path
       id="Pad_f0030"
       d="m -34.5,-47.5 v 0 h -3 v 0 z"
       stroke="#191919"
       stroke-width="0.7 px"
       style="fill:#727980;fill-opacity:0.3;fill-rule:evenodd;stroke-width:0.7;stroke-linecap:square;stroke-miterlimit:4;stroke-dasharray:none" />
    <path
       id="Pad_f0031"
       d="m -37.5,-47.5 v 0 A 1.5,1.5 0 0 1 -39,-49 v 0 a 1.5,1.5 0 0 0 1.5,1.5 z"
       stroke="#191919"
       stroke-width="0.7 px"
       style="fill:#727980;fill-opacity:0.3;fill-rule:evenodd;stroke-width:0.7;stroke-linecap:square;stroke-miterlimit:4;stroke-dasharray:none" />
    <path
       id="Pad_f0032"
       d="m 37.5,-47.5 h -3 v 0 z"
       stroke="#191919"
       stroke-width="0.7 px"
       style="fill:#727980;fill-opacity:0.3;fill-rule:evenodd;stroke-width:0.7;stroke-linecap:square;stroke-miterlimit:4;stroke-dasharray:none" />
    <path
       id="Pad_f0033"
       d="m 39,-49 v 0 a 1.5,1.5 0 0 1 -1.5,1.5 v 0 A 1.5,1.5 0 0 0 39,-49 Z"
       stroke="#191919"
       stroke-width="0.7 px"
       style="fill:#727980;fill-opacity:0.3;fill-rule:evenodd;stroke-width:0.7;stroke-linecap:square;stroke-miterlimit:4;stroke-dasharray:none" />
    <path
       id="Pad_f0034"
       d="m 39,-61 v 12 0 z"
       stroke="#191919"
       stroke-width="0.7 px"
       style="fill:#727980;fill-opacity:0.3;fill-rule:evenodd;stroke-width:0.7;stroke-linecap:square;stroke-miterlimit:4;stroke-dasharray:none" />
    <path
       id="Pad_f0035"
       d="m 37.5,-62.5 v 0 A 1.5,1.5 0 0 1 39,-61 v 0 a 1.5,1.5 0 0 0 -1.5,-1.5 z"
       stroke="#191919"
       stroke-width="0.7 px"
       style="fill:#727980;fill-opacity:0.3;fill-rule:evenodd;stroke-width:0.7;stroke-linecap:square;stroke-miterlimit:4;stroke-dasharray:none" />
    <path
       id="Pad_f0036"
       d="m 34.5,-62.5 h 3 v 0 z"
       stroke="#191919"
       stroke-width="0.7 px"
       style="fill:#727980;fill-opacity:0.3;fill-rule:evenodd;stroke-width:0.7;stroke-linecap:square;stroke-miterlimit:4;stroke-dasharray:none" />
    <path
       id="Pad_f0037"
       d="m 33,-61 v 0 a 1.5,1.5 0 0 1 1.5,-1.5 v 0 A 1.5,1.5 0 0 0 33,-61 Z"
       stroke="#191919"
       stroke-width="0.7 px"
       style="fill:#727980;fill-opacity:0.3;fill-rule:evenodd;stroke-width:0.7;stroke-linecap:square;stroke-miterlimit:4;stroke-dasharray:none" />
    <path
       id="Pad_f0038"
       d="m 33,-49 v -12 0 z"
       stroke="#191919"
       stroke-width="0.7 px"
       style="fill:#727980;fill-opacity:0.3;fill-rule:evenodd;stroke-width:0.7;stroke-linecap:square;stroke-miterlimit:4;stroke-dasharray:none" />
    <path
       id="Pad_f0039"
       d="m 34.5,-47.5 v 0 A 1.5,1.5 0 0 1 33,-49 v 0 a 1.5,1.5 0 0 0 1.5,1.5 z"
       stroke="#191919"
       stroke-width="0.7 px"
       style="fill:#727980;fill-opacity:0.3;fill-rule:evenodd;stroke-width:0.7;stroke-linecap:square;stroke-miterlimit:4;stroke-dasharray:none" />
    <path
       id="Pad_f0040"
       d="m -27,14.5 v 0 a 2,2 0 1 1 -4,0 v 0 a 2,2 0 1 0 4,0 z"
       stroke="#191919"
       stroke-width="0.7 px"
       style="fill:#727980;fill-opacity:0.3;fill-rule:evenodd;stroke-width:0.7;stroke-linecap:square;stroke-miterlimit:4;stroke-dasharray:none" />
    <path
       id="Pad_f0041"
       d="m -31,14.5 v 0 -2 0 z"
       stroke="#191919"
       stroke-width="0.7 px"
       style="fill:#727980;fill-opacity:0.3;fill-rule:evenodd;stroke-width:0.7;stroke-linecap:square;stroke-miterlimit:4;stroke-dasharray:none" />
    <path
       id="Pad_f0042"
       d="m -31,12.5 v 0 a 2,2 0 0 1 4,0 v 0 a 2,2 0 0 0 -4,0 z"
       stroke="#191919"
       stroke-width="0.7 px"
       style="fill:#727980;fill-opacity:0.3;fill-rule:evenodd;stroke-width:0.7;stroke-linecap:square;stroke-miterlimit:4;stroke-dasharray:none" />
    <path
       id="Pad_f0043"
       d="m -27,12.5 v 2 0 z"
       stroke="#191919"
       stroke-width="0.7 px"
       style="fill:#727980;fill-opacity:0.3;fill-rule:evenodd;stroke-width:0.7;stroke-linecap:square;stroke-miterlimit:4;stroke-dasharray:none" />
    <path
       id="Pad_f0044"
       d="m 31,14.5 v 0 a 2,2 0 0 1 -4,0 v 0 a 2,2 0 0 0 4,0 z"
       stroke="#191919"
       stroke-width="0.7 px"
       style="fill:#727980;fill-opacity:0.3;fill-rule:evenodd;stroke-width:0.7;stroke-linecap:square;stroke-miterlimit:4;stroke-dasharray:none" />
    <path
       id="Pad_f0045"
       d="m 27,14.5 v 0 -2 0 z"
       stroke="#191919"
       stroke-width="0.7 px"
       style="fill:#727980;fill-opacity:0.3;fill-rule:evenodd;stroke-width:0.7;stroke-linecap:square;stroke-miterlimit:4;stroke-dasharray:none" />
    <path
       id="Pad_f0046"
       d="m 27,12.5 v 0 a 2,2 0 1 1 4,0 v 0 a 2,2 0 1 0 -4,0 z"
       stroke="#191919"
       stroke-width="0.7 px"
       style="fill:#727980;fill-opacity:0.3;fill-rule:evenodd;stroke-width:0.7;stroke-linecap:square;stroke-miterlimit:4;stroke-dasharray:none" />
    <path
       id="Pad_f0047"
       d="m 31,12.5 v 2 0 z"
       stroke="#191919"
       stroke-width="0.7 px"
       style="fill:#727980;fill-opacity:0.3;fill-rule:evenodd;stroke-width:0.7;stroke-linecap:square;stroke-miterlimit:4;stroke-dasharray:none" />
    <path
       id="Pad_f0048"
       d="m 11.5,16.5 v 0 a 1,1 0 1 1 0,2 v 0 a 1,1 0 1 0 0,-2 z"
       stroke="#191919"
       stroke-width="0.7 px"
       style="fill:#727980;fill-opacity:0.3;fill-rule:evenodd;stroke-width:0.7;stroke-linecap:square;stroke-miterlimit:4;stroke-dasharray:none" />
    <path
       id="Pad_f0049"
       d="m 11.5,18.5 v 0 h -3 v 0 z"
       stroke="#191919"
       stroke-width="0.7 px"
       style="fill:#727980;fill-opacity:0.3;fill-rule:evenodd;stroke-width:0.7;stroke-linecap:square;stroke-miterlimit:4;stroke-dasharray:none" />
    <path
       id="Pad_f0050"
       d="m 8.5,18.5 v 0 a 1,1 0 1 1 0,-2 v 0 a 1,1 0 1 0 0,2 z"
       stroke="#191919"
       stroke-width="0.7 px"
       style="fill:#727980;fill-opacity:0.3;fill-rule:evenodd;stroke-width:0.7;stroke-linecap:square;stroke-miterlimit:4;stroke-dasharray:none" />
    <path
       id="Pad_f0051"
       d="m 8.5,16.5 h 3 v 0 z"
       stroke="#191919"
       stroke-width="0.7 px"
       style="fill:#727980;fill-opacity:0.3;fill-rule:evenodd;stroke-width:0.7;stroke-linecap:square;stroke-miterlimit:4;stroke-dasharray:none" />
    <path
       id="Pad_f0052"
       d="m 1.5,16.5 v 0 a 1,1 0 0 1 0,2 v 0 a 1,1 0 0 0 0,-2 z"
       stroke="#191919"
       stroke-width="0.7 px"
       style="fill:#727980;fill-opacity:0.3;fill-rule:evenodd;stroke-width:0.7;stroke-linecap:square;stroke-miterlimit:4;stroke-dasharray:none" />
    <path
       id="Pad_f0053"
       d="m 1.5,18.5 v 0 h -3 v 0 z"
       stroke="#191919"
       stroke-width="0.7 px"
       style="fill:#727980;fill-opacity:0.3;fill-rule:evenodd;stroke-width:0.7;stroke-linecap:square;stroke-miterlimit:4;stroke-dasharray:none" />
    <path
       id="Pad_f0054"
       d="m -1.5,18.5 v 0 a 1,1 0 0 1 0,-2 v 0 a 1,1 0 0 0 0,2 z"
       stroke="#191919"
       stroke-width="0.7 px"
       style="fill:#727980;fill-opacity:0.3;fill-rule:evenodd;stroke-width:0.7;stroke-linecap:square;stroke-miterlimit:4;stroke-dasharray:none" />
    <path
       id="Pad_f0055"
       d="m -1.5,16.5 h 3 v 0 z"
       stroke="#191919"
       stroke-width="0.7 px"
       style="fill:#727980;fill-opacity:0.3;fill-rule:evenodd;stroke-width:0.7;stroke-linecap:square;stroke-miterlimit:4;stroke-dasharray:none" />
    <path
       id="Pad_f0056"
       d="m -11.5,18.5 v 0 a 1,1 0 1 1 0,-2 v 0 a 1,1 0 1 0 0,2 z"
       stroke="#191919"
       stroke-width="0.7 px"
       style="fill:#727980;fill-opacity:0.3;fill-rule:evenodd;stroke-width:0.7;stroke-linecap:square;stroke-miterlimit:4;stroke-dasharray:none" />
    <path
       id="Pad_f0057"
       d="m -11.5,16.5 v 0 h 3 v 0 z"
       stroke="#191919"
       stroke-width="0.7 px"
       style="fill:#727980;fill-opacity:0.3;fill-rule:evenodd;stroke-width:0.7;stroke-linecap:square;stroke-miterlimit:4;stroke-dasharray:none" />
    <path
       id="Pad_f0058"
       d="m -8.5,16.5 v 0 a 1,1 0 0 1 0,2 v 0 a 1,1 0 0 0 0,-2 z"
       stroke="#191919"
       stroke-width="0.7 px"
       style="fill:#727980;fill-opacity:0.3;fill-rule:evenodd;stroke-width:0.7;stroke-linecap:square;stroke-miterlimit:4;stroke-dasharray:none" />
    <path
       id="Pad_f0059"
       d="m -8.5,18.5 h -3 v 0 z"
       stroke="#191919"
       stroke-width="0.7 px"
       style="fill:#727980;fill-opacity:0.3;fill-rule:evenodd;stroke-width:0.7;stroke-linecap:square;stroke-miterlimit:4;stroke-dasharray:none" />
    <path
       id="Pad_f0060"
       d="m 11.5,-69.5 v 0 a 1,1 0 0 1 0,2 v 0 a 1,1 0 0 0 0,-2 z"
       stroke="#191919"
       stroke-width="0.7 px"
       style="fill:#727980;fill-opacity:0.3;fill-rule:evenodd;stroke-width:0.7;stroke-linecap:square;stroke-miterlimit:4;stroke-dasharray:none" />
    <path
       id="Pad_f0061"
       d="m 11.5,-67.5 v 0 h -3 v 0 z"
       stroke="#191919"
       stroke-width="0.7 px"
       style="fill:#727980;fill-opacity:0.3;fill-rule:evenodd;stroke-width:0.7;stroke-linecap:square;stroke-miterlimit:4;stroke-dasharray:none" />
    <path
       id="Pad_f0062"
       d="m 8.5,-67.5 v 0 a 1,1 0 0 1 0,-2 v 0 a 1,1 0 0 0 0,2 z"
       stroke="#191919"
       stroke-width="0.7 px"
       style="fill:#727980;fill-opacity:0.3;fill-rule:evenodd;stroke-width:0.7;stroke-linecap:square;stroke-miterlimit:4;stroke-dasharray:none" />
    <path
       id="Pad_f0063"
       d="m 8.5,-69.5 h 3 v 0 z"
       stroke="#191919"
       stroke-width="0.7 px"
       style="fill:#727980;fill-opacity:0.3;fill-rule:evenodd;stroke-width:0.7;stroke-linecap:square;stroke-miterlimit:4;stroke-dasharray:none" />
    <path
       id="Pad_f0064"
       d="m -11.5,-67.5 v 0 a 1,1 0 1 1 0,-2 v 0 a 1,1 0 1 0 0,2 z"
       stroke="#191919"
       stroke-width="0.7 px"
       style="fill:#727980;fill-opacity:0.3;fill-rule:evenodd;stroke-width:0.7;stroke-linecap:square;stroke-miterlimit:4;stroke-dasharray:none" />
    <path
       id="Pad_f0065"
       d="m -11.5,-69.5 v 0 h 3 v 0 z"
       stroke="#191919"
       stroke-width="0.7 px"
       style="fill:#727980;fill-opacity:0.3;fill-rule:evenodd;stroke-width:0.7;stroke-linecap:square;stroke-miterlimit:4;stroke-dasharray:none" />
    <path
       id="Pad_f0066"
       d="m -8.5,-69.5 v 0 a 1,1 0 0 1 0,2 v 0 a 1,1 0 0 0 0,-2 z"
       stroke="#191919"
       stroke-width="0.7 px"
       style="fill:#727980;fill-opacity:0.3;fill-rule:evenodd;stroke-width:0.7;stroke-linecap:square;stroke-miterlimit:4;stroke-dasharray:none" />
    <path
       id="Pad_f0067"
       d="m -8.5,-67.5 h -3 v 0 z"
       stroke="#191919"
       stroke-width="0.7 px"
       style="fill:#727980;fill-opacity:0.3;fill-rule:evenodd;stroke-width:0.7;stroke-linecap:square;stroke-miterlimit:4;stroke-dasharray:none" />
    <path
       id="Pad_f0068"
       d="m 1.5,-69.5 v 0 a 1,1 0 0 1 0,2 v 0 a 1,1 0 0 0 0,-2 z"
       stroke="#191919"
       stroke-width="0.7 px"
       style="fill:#727980;fill-opacity:0.3;fill-rule:evenodd;stroke-width:0.7;stroke-linecap:square;stroke-miterlimit:4;stroke-dasharray:none" />
    <path
       id="Pad_f0069"
       d="m 1.5,-67.5 v 0 h -3 v 0 z"
       stroke="#191919"
       stroke-width="0.7 px"
       style="fill:#727980;fill-opacity:0.3;fill-rule:evenodd;stroke-width:0.7;stroke-linecap:square;stroke-miterlimit:4;stroke-dasharray:none" />
    <path
       id="Pad_f0070"
       d="m -1.5,-67.5 v 0 a 1,1 0 0 1 0,-2 v 0 a 1,1 0 0 0 0,2 z"
       stroke="#191919"
       stroke-width="0.7 px"
       style="fill:#727980;fill-opacity:0.3;fill-rule:evenodd;stroke-width:0.7;stroke-linecap:square;stroke-miterlimit:4;stroke-dasharray:none" />
    <path
       id="Pad_f0071"
       d="m -1.5,-69.5 h 3 v 0 z"
       stroke="#191919"
       stroke-width="0.7 px"
       style="fill:#727980;fill-opacity:0.3;fill-rule:evenodd;stroke-width:0.7;stroke-linecap:square;stroke-miterlimit:4;stroke-dasharray:none" />
    <circle
       cx="0"
       cy="48.924999"
       r="1.5"
       stroke="#191919"
       stroke-width="0.7 px"
       style="fill:#727980;stroke-width:0.7;stroke-linecap:square;stroke-miterlimit:4;stroke-dasharray:none"
       id="circle1" />
    <circle
       cx="0"
       cy="29.075001"
       r="1.5"
       stroke="#191919"
       stroke-width="0.7 px"
       style="fill:#727980;stroke-width:0.7;stroke-linecap:square;stroke-miterlimit:4;stroke-dasharray:none"
       id="circle2" />
    <circle
       cx="25"
       cy="48"
       r="1"
       stroke="#191919"
       stroke-width="0.7 px"
       style="fill:#727980;stroke-width:0.7;stroke-linecap:square;stroke-miterlimit:4;stroke-dasharray:none"
       id="circle3" />
    <circle
       cx="25"
       cy="30"
       r="1"
       stroke="#191919"
       stroke-width="0.7 px"
       style="fill:#727980;stroke-width:0.7;stroke-linecap:square;stroke-miterlimit:4;stroke-dasharray:none"
       id="circle4" />
    <circle
       cx="-25"
       cy="48"
       r="1"
       stroke="#191919"
       stroke-width="0.7 px"
       style="fill:#727980;stroke-width:0.7;stroke-linecap:square;stroke-miterlimit:4;stroke-dasharray:none"
       id="circle5" />
    <circle
       cx="-25"
       cy="30"
       r="1"
       stroke="#191919"
       stroke-width="0.7 px"
       style="fill:#727980;stroke-width:0.7;stroke-linecap:square;stroke-miterlimit:4;stroke-dasharray:none"
       id="circle6" />
    <circle
       cx="-12.5"
       cy="-55"
       r="1"
       stroke="#191919"
       stroke-width="0.7 px"
       style="fill:#727980;stroke-width:0.7;stroke-linecap:square;stroke-miterlimit:4;stroke-dasharray:none"
       id="circle7" />
    <circle
       cx="12.5"
       cy="-55"
       r="1"
       stroke="#191919"
       stroke-width="0.7 px"
       style="fill:#727980;stroke-width:0.7;stroke-linecap:square;stroke-miterlimit:4;stroke-dasharray:none"
       id="circle8" />
    <circle
       cx="0"
       cy="48.924999"
       r="1.5"
       stroke="#191919"
       stroke-width="0.7 px"
       style="fill:#727980;stroke-width:0.7;stroke-linecap:square;stroke-miterlimit:4;stroke-dasharray:none"
       id="circle9" />
    <circle
       cx="0"
       cy="48.924999"
       r="1.5"
       stroke="#191919"
       stroke-width="0.7 px"
       style="fill:#727980;stroke-width:0.7;stroke-linecap:square;stroke-miterlimit:4;stroke-dasharray:none"
       id="circle10" />
    <title
       id="title10">b'Pad'</title>
  </g>
</svg>
